<?xml version="1.0" encoding="UTF-8" standalone="no"?>
<!-- Created with Inkscape (http://www.inkscape.org/) -->

<svg
   width="50.242607mm"
   height="44.022446mm"
   viewBox="0 0 50.242607 44.022446"
   version="1.1"
   id="svg5"
   xml:space="preserve"
   inkscape:version="1.2.2 (b0a8486541, 2022-12-01)"
   sodipodi:docname="icon.svg"
   xmlns:inkscape="http://www.inkscape.org/namespaces/inkscape"
   xmlns:sodipodi="http://sodipodi.sourceforge.net/DTD/sodipodi-0.dtd"
   xmlns="http://www.w3.org/2000/svg"
   xmlns:svg="http://www.w3.org/2000/svg"><sodipodi:namedview
     id="namedview7"
     pagecolor="#505050"
     bordercolor="#eeeeee"
     borderopacity="1"
     inkscape:showpageshadow="0"
     inkscape:pageopacity="0"
     inkscape:pagecheckerboard="0"
     inkscape:deskcolor="#505050"
     inkscape:document-units="mm"
     showgrid="false"
     inkscape:zoom="0.84096521"
     inkscape:cx="-147.44962"
     inkscape:cy="-58.860937"
     inkscape:window-width="1920"
     inkscape:window-height="1016"
     inkscape:window-x="0"
     inkscape:window-y="129"
     inkscape:window-maximized="1"
     inkscape:current-layer="layer1" /><defs
     id="defs2" /><g
     inkscape:label="Layer 1"
     inkscape:groupmode="layer"
     id="layer1"
     transform="translate(-64.861827,-76.604684)"><g
       id="g8402"><g
         id="g156"
         transform="matrix(0.7505461,0.07871602,0,0.7505461,76.812376,81.343372)"
         style="fill:#f29111;fill-opacity:1"><path
           d="m 11.622,24.74 c 0,0 -1.23,0.748 0.855,0.962 2.51,0.32 3.847,0.267 6.625,-0.267 a 10.02,10.02 0 0 0 1.763,0.855 c -6.25,2.672 -14.16,-0.16 -9.244,-1.55 z m -0.8,-3.473 c 0,0 -1.336,1.015 0.748,1.23 2.725,0.267 4.862,0.32 8.55,-0.427 a 3.26,3.26 0 0 0 1.282,0.801 c -7.534,2.244 -15.976,0.214 -10.58,-1.603 z m 14.747,6.09 c 0,0 0.908,0.748 -1.015,1.336 -3.58,1.07 -15.014,1.39 -18.22,0 -1.122,-0.48 1.015,-1.175 1.7,-1.282 0.695,-0.16 1.07,-0.16 1.07,-0.16 -1.23,-0.855 -8.175,1.763 -3.526,2.51 12.77,2.084 23.296,-0.908 19.983,-2.404 z M 12.2,17.633 c 0,0 -5.824,1.39 -2.084,1.87 1.603,0.214 4.755,0.16 7.694,-0.053 2.404,-0.214 4.81,-0.64 4.81,-0.64 0,0 -0.855,0.374 -1.443,0.748 -5.93,1.55 -17.312,0.855 -14.052,-0.748 2.778,-1.336 5.076,-1.175 5.076,-1.175 z m 10.42,5.824 c 5.984,-3.1 3.206,-6.09 1.282,-5.717 -0.48,0.107 -0.695,0.214 -0.695,0.214 0,0 0.16,-0.32 0.534,-0.427 3.794,-1.336 6.786,4.007 -1.23,6.09 0,0 0.053,-0.053 0.107,-0.16 z m -9.83,8.442 c 5.77,0.374 14.587,-0.214 14.8,-2.94 0,0 -0.427,1.07 -4.755,1.87 -4.916,0.908 -11.007,0.8 -14.587,0.214 0,0 0.748,0.64 4.542,0.855 z"
           fill="#4e7896"
           id="path144"
           style="fill:#f29111;fill-opacity:1" /><path
           d="m 18.996,0.001 c 0,0 3.313,3.366 -3.152,8.442 -5.183,4.114 -1.175,6.465 0,9.137 -3.046,-2.725 -5.236,-5.13 -3.74,-7.373 2.19,-3.314 8.228,-4.907 6.892,-10.206 z m -1.7,15.335 c 1.55,1.763 -0.427,3.366 -0.427,3.366 0,0 3.954,-2.03 2.137,-4.542 -1.656,-2.404 -2.94,-3.58 4.007,-7.587 0,0 -10.953,2.725 -5.717,8.763 z"
           fill="#f58219"
           id="path146"
           style="fill:#f29111;fill-opacity:1" /></g><path
         style="fill:#f29111;fill-opacity:1;stroke-width:0.264583"
         d="m 91.503734,118.29081 c 0.0714,1.17475 0.0714,1.17475 -0.762,1.48431 -0.63765,-1.15887 -0.48419,-1.49225 0.74348,-1.48431 z"
         id="path6172" /><path
         style="fill:#f29111;fill-opacity:1;stroke-width:0.264583"
         d="m 114.74473,117.49706 c -1.29117,-1.2991 -2.72786,-2.38125 -4.60111,-2.91042 -0.19579,-1.70656 -0.39952,-3.43958 -0.58737,-5.15673 q -0.40481,-3.70416 -0.79375,-7.40833 c -0.0503,-0.47625 -0.0661,-0.96044 -0.0767,-1.44198 a 6.2891458,6.2891458 0 0 0 0.0265,-0.91546 c -0.4154,-2.23043 -0.86254,-4.45293 -1.28588,-6.68073 -0.29368,-1.53987 -0.55298,-3.08768 -0.84931,-4.62756 -0.22754,-1.19591 -0.59531,-2.38125 -0.70114,-3.5851 -0.14288,-1.60338 -0.58473,-2.91042 -2.27807,-3.32317 -0.26458,-0.79375 -0.52916,-1.54252 -0.78052,-2.3151 -0.24871,-0.17727 -0.52916,-0.40217 -0.82021,-0.58473 -1.01335,-0.61384 -2.058446,-1.16681 -3.257016,-1.32292 -1.64306,-0.20108 -3.29141,-0.38364 -4.93712,-0.56621 a 3.7888333,3.7888333 0 0 0 -1.02129,-0.0344 c -1.89707,0.3175 -3.77032,0.75407 -5.72823,0.62707 a 7.0220417,7.0220417 0 0 0 -2.60615,0.26458 c -1.85208,0.61119 -3.76502,1.05833 -5.334,2.36537 -1.24354,1.03982 -1.51606,1.55575 -1.09008,3.13267 -0.24077,0.77258 -0.75142,1.08479 -1.57163,1.10331 a 2.0743333,2.0743333 0 0 0 -1.12712,0.52917 2.7675417,2.7675417 0 0 0 -0.96309,1.81505 c -0.1905,1.25412 -0.39422,2.51618 -0.64558,3.74385 a 19.965458,19.965458 0 0 0 -0.40217,4.43442 c 0.0609,2.62202 0.26459,5.24139 0.24078,7.86077 0,3.33375 -0.16405,6.6675 -0.26459,9.92452 l -1.76212,0.93662 c -0.26459,-0.21431 -0.55034,-0.55298 -0.90488,-0.67998 -0.42598,-0.15345 -0.97896,-0.29898 -1.36789,-0.15345 a 12.141729,12.141729 0 0 0 -4.040191,2.36802 c -0.312209,0.28575 -0.529167,0.60325 -0.156105,1.10331 0.4445,-0.26458 0.886355,-0.52917 1.322917,-0.79375 0.568854,-0.33073 1.121829,-0.69056 1.711859,-0.97102 a 2.397125,2.397125 0 0 1 2.79664,0.37835 c -0.49742,1.15359 -0.49742,1.15359 0.40481,1.63513 0.26459,-0.37571 0.52917,-0.77788 0.81757,-1.143 1.04245,-1.26207 2.76225,-1.14829 3.61685,0.23283 0.26458,0.4154 0.4789,0.86254 1.12713,0.71967 l 0.64822,-0.90488 c 0.7673,-0.24606 1.32292,0 1.87855,0.46038 a 3.3840208,3.3840208 0 0 0 0.90223,0.47889 c 0.0847,0.0344 0.23018,-0.0794 0.39687,-0.14287 l -0.50535,-0.89165 0.11641,-0.0661 c 1.93675,-1.12977 2.11667,-1.11389 3.43959,0.37836 l 0.10054,0.11112 c -0.0662,0.80963 -0.84402,1.5584 -0.23548,2.52413 a 4.4264792,4.4264792 0 0 0 0.47096,-0.34396 c 0.56091,-0.55298 1.12448,-1.10596 1.66687,-1.67481 0.5424,-0.56886 1.15094,-0.76465 1.90236,-0.48948 0.64029,0.23548 1.24354,0.43921 1.09802,1.3626 -0.037,0.21961 0.36248,0.51065 0.55033,0.75142 a 5.2519792,5.2519792 0 0 0 0.6641,-0.3519 3.4792708,3.4792708 0 0 0 0.46567,-0.46037 c 0.79375,-0.83873 0.79375,-0.83873 1.8759,-0.27782 0.0529,0.50007 -0.64294,0.88371 -0.14288,1.5875 a 10.466917,10.466917 0 0 0 0.94456,-0.50535 c 0.54505,-0.36512 1.05834,-0.79375 1.60867,-1.1377 0.28575,-0.17728 0.67204,-0.37307 0.96573,-0.3175 a 5.2096458,5.2096458 0 0 1 2.46856,1.143 c 0.59002,0.5027 0.89694,1.02922 0.8599,1.8071 a 2.1537083,2.1537083 0 0 0 0.28575,0.86519 c 0.33867,0.74083 0.55033,0.77523 1.359956,0.26458 v -2.11667 c 0.1561,-0.0741 0.24341,-0.15345 0.30956,-0.13758 a 2.524125,2.524125 0 0 0 2.39712,-0.61648 c 0.43128,-0.38364 0.97632,-0.32014 1.5875,0.26458 -0.34395,0.49742 -0.68791,0.93928 -0.97366,1.41817 -0.34925,0.57679 -0.23548,1.03188 0.37306,1.5875 0.3175,-0.46037 0.56356,-0.97896 0.94985,-1.34937 0.79375,-0.75142 1.64836,-1.41288 2.46592,-2.11667 1.21708,-1.05833 3.21204,-1.17475 4.47675,-0.25135 0.89958,0.65881 1.80181,1.32291 2.71727,1.98172 a 1.1165417,1.1165417 0 0 0 -0.20108,-1.39435 z m -13.67631,-37.6211 c 0.30956,0.26458 0.73818,0.65881 0.73818,0.99483 0,1.45256 0.89694,2.07698 2.11667,2.50296 l 0.42069,2.64583 c 0.23548,1.47902 0.47096,2.96069 0.69321,4.44236 0.12435,0.8202 0.19843,1.64835 0.26458,2.47385 0.0238,0.26458 0.0767,0.57944 -0.0476,0.77258 -0.71173,1.11919 -0.52917,2.45004 -0.91281,3.64596 a 5.0456042,5.0456042 0 0 0 -0.0952,1.15623 l 0.22489,0.10054 1.46844,-2.25425 c 0.26458,1.15623 0.58208,2.14842 0.66939,3.175 0.18786,2.17488 0.24342,4.36034 0.36777,6.5405 0.0318,0.51065 0.12436,1.02129 0.1905,1.56369 l -2.70669,0.44979 -0.30691,0.0503 c 0.0159,-0.381 0.0397,-0.73289 0.0608,-1.05833 a 9.8795417,9.8795417 0 0 0 0.0185,-1.42081 c -0.14552,-1.73832 -0.37042,-3.46869 -0.5715,-5.19907 -0.082,-0.72231 -0.18256,-1.44462 -0.28311,-2.16429 -0.15345,-1.11389 -0.30162,-2.22514 -0.381,-3.34169 -0.0185,-0.24077 -0.0317,-0.47889 -0.0423,-0.71966 -0.0106,-0.24077 -0.0212,-0.52917 -0.037,-0.78052 -0.17991,-3.33904 -0.65881,-6.61459 -1.96056,-9.72344 a 5.68325,5.68325 0 0 0 -1.108596,-1.74625 c -0.86519,-0.9234 -1.68011,-1.88648 -2.73315,-2.61144 -0.127,-0.0873 -0.18785,-0.26458 -0.38364,-0.56621 1.64835,0.0608 3.13266,-0.005 4.336516,1.07157 z m -0.45244,29.464 a 1.9420417,1.9420417 0 0 1 0.84931,-0.30163 0.8255,0.8255 0 0 1 0.85725,0.57679 1.2673542,1.2673542 0 0 1 0.0529,0.89429 c -0.11906,0.26459 -0.45244,0.43921 -0.67733,0.64294 -0.66146,-0.58473 -0.8255,-0.73025 -0.9525,-1.2065 -0.0423,-0.1561 -0.0794,-0.34925 -0.12965,-0.60589 z m -1.058326,7.54856 c -0.381,-0.32544 -0.7673,-0.64823 -1.16153,-0.93398 -1.35466,-0.97631 -2.82045,-1.53988 -4.62756,-0.46302 -0.0794,0.045 -0.1561,0.0953 -0.23548,0.14817 l -0.0741,-0.09 c -0.28575,-0.35455 -0.52916,-0.66411 -0.75935,-0.93398 -1.26471,-0.21961 -2.33627,-0.0291 -3.175,1.05833 -1.32292,-1.36525 -2.69346,-2.43681 -4.6064,-1.05833 -0.79375,-0.7329 -1.28058,-1.89442 -2.52677,-1.91823 -1.08214,-0.0185 -2.09814,0.26458 -2.83898,1.14035 -1.05833,-0.56356 -1.85208,-0.13758 -2.56646,0.39688 -0.10583,0.0794 -0.21166,0.15875 -0.31485,0.24077 l -1.79388,-1.92617 c 0.045,-0.6006 0.12436,-1.41816 0.1614,-2.23837 l 0.0159,-0.32279 c 0.0661,-1.34409 0.14287,-2.68817 0.12435,-4.02961 -0.0159,-1.1721 0.79375,-1.78329 1.4949,-2.45533 0.19314,-0.18521 0.635,-0.10054 0.96044,-0.15611 0.32543,-0.0556 0.60854,-0.1217 0.93133,-0.18785 -0.13229,-0.74348 -0.55033,-0.99748 -1.05833,-1.03717 -0.508,-0.0397 -0.77788,-0.32808 -1.05834,-0.69321 -0.12171,-0.16668 -0.24606,-0.33602 -0.37835,-0.49741 a 3.4951458,3.4951458 0 0 0 -0.38365,-0.40746 c -0.65616,-0.58473 -0.81491,-1.28588 -0.73025,-2.13783 0.0582,-0.58738 -0.0847,-1.19327 -0.0794,-1.79123 0.0212,-2.11667 -0.127,-4.23334 0.41011,-6.29973 a 11.131021,11.131021 0 0 0 0.17462,-1.4314 c 0.17198,-1.34144 1.09273,-2.24631 1.91558,-3.175 0.23284,-0.26458 0.69057,-0.33073 1.05834,-0.48683 0.89958,-0.39423 1.40758,-0.9869 1.16681,-1.8124 -0.38365,-1.32291 0.48683,-1.93939 1.30175,-2.42093 1.17475,-0.69321 2.49502,-1.143 3.75708,-1.6854 a 1.8520833,1.8520833 0 0 1 0.62442,-0.18521 c 2.23308,-0.0979 4.46617,-0.22754 6.69925,-0.26458 1.38642,-0.0159 2.58233,0.59266 3.72798,1.36525 a 12.943417,12.943417 0 0 1 3.28612,3.33375 9.2604167,9.2604167 0 0 1 1.259416,2.97921 27.252083,27.252083 0 0 1 0.8255,8.04333 c -0.082,2.19604 0.21167,4.36298 0.46038,6.5405 0.24077,2.11667 0.28839,4.2545 0.42862,6.5114 a 3.5268958,3.5268958 0 0 0 -2.973916,1.5875 c -0.30691,0.42862 -0.508,0.6297 -0.7276,0.635 -0.2196,0.005 -0.43392,-0.1614 -0.78052,-0.47625 a 1.4340417,1.4340417 0 0 0 -0.76729,-0.3519 c -0.44979,-0.0423 -0.96309,0.2884 -1.52136,0.83873 0.87577,0.30692 1.74096,0.63764 2.62732,0.89958 0.20902,0.0609 0.5027,-0.0926 0.73554,-0.19844 0.12171,-0.0582 0.24077,-0.12435 0.35983,-0.19314 0.17992,-0.10583 0.35983,-0.22225 0.56092,-0.33867 a 4.7333958,4.7333958 0 0 1 0.39158,0.46567 c 0.552976,0.73289 0.997476,1.55839 1.949976,1.66952 a 2.0081875,2.0081875 0 0 0 0.47096,0 3.90525,3.90525 0 0 1 0.36248,1.60602 c 0.0212,0.52917 -0.0238,1.02129 0,1.44992 -0.6059,1.37583 -1.71979,1.44462 -2.809876,1.63512 z m 6.257386,-0.55033 c -1.11654,-0.635 -0.86783,-1.69069 -0.96308,-2.52678 -0.14288,-1.25147 -0.13494,-2.51354 -0.56621,-3.72533 a 0.58472917,0.58472917 0 0 1 -0.0265,-0.22489 0.79375,0.79375 0 0 1 0.127,-0.3863 c 0.0953,-0.14287 0.22489,-0.22489 0.33337,-0.16668 0.81757,0.4392 1.52665,-0.29634 2.35744,-0.0529 l 0.0476,0.36512 0.0714,0.57415 c 0.0847,0.64558 0.16669,1.2991 0.25136,1.95262 0.127,0.9869 0.26458,1.97115 0.37835,2.94217 l -1.70656,1.2409 -0.13229,0.0979 c -0.0714,-0.0291 -0.12436,-0.0609 -0.17198,-0.09 z"
         id="path6162" /></g></g></svg>
